<?xml version="1.0" standalone="no"?>
<!DOCTYPE svg PUBLIC "-//W3C//DTD SVG 20010904//EN"
 "http://www.w3.org/TR/2001/REC-SVG-20010904/DTD/svg10.dtd">
<svg version="1.0" xmlns="http://www.w3.org/2000/svg"
 width="300.000000pt" height="161.000000pt" viewBox="0 0 300.000000 161.000000"
 preserveAspectRatio="xMidYMid meet">
<metadata>
Created by potrace 1.10, written by Peter Selinger 2001-2011
</metadata>
<g transform="translate(0.000000,161.000000) scale(0.100000,-0.100000)"
fill="#000000" stroke="none">
<path d="M285 996 c-20 -15 -17 -44 7 -59 12 -8 21 -7 32 2 36 30 -1 85 -39
57z"/>
<path d="M2685 996 c-20 -15 -17 -44 7 -59 12 -8 21 -7 32 2 36 30 -1 85 -39
57z"/>
<path d="M818 961 c-9 -22 -12 -41 -7 -41 5 0 9 5 9 10 0 14 28 12 33 -2 2 -7
7 -11 9 -8 3 3 -2 23 -11 44 l-17 39 -16 -42z"/>
<path d="M1008 969 c3 -20 0 -34 -9 -40 -10 -6 -5 -8 16 -8 17 0 25 3 20 5 -6
2 -9 20 -7 39 3 26 0 35 -10 35 -11 0 -13 -9 -10 -31z"/>
<path d="M1181 958 c0 -33 2 -38 9 -23 7 18 8 19 15 3 4 -10 12 -18 17 -18 7
0 6 5 -1 14 -6 7 -8 21 -5 31 6 16 -9 34 -28 35 -5 0 -8 -19 -7 -42z m29 12
c0 -5 -4 -10 -10 -10 -5 0 -10 5 -10 10 0 6 5 10 10 10 6 0 10 -4 10 -10z"/>
<path d="M1853 984 c-4 -10 1 -22 10 -29 23 -16 21 -23 -5 -28 -20 -4 -19 -4
5 -6 32 -1 37 24 10 45 -17 13 -17 13 0 14 21 0 23 20 2 20 -9 0 -18 -7 -22
-16z"/>
<path d="M2152 960 c0 -31 2 -38 6 -22 4 13 12 23 17 23 6 0 13 -10 17 -23 6
-19 7 -18 5 7 -1 19 -7 30 -17 30 -8 0 -18 7 -22 15 -4 8 -6 -5 -6 -30z"/>
<path d="M380 970 c0 -19 7 -20 160 -20 153 0 160 1 160 20 0 19 -7 20 -160
20 -153 0 -160 -1 -160 -20z"/>
<path d="M883 983 c-18 -7 1 -58 23 -60 10 -2 13 0 7 3 -16 7 -17 41 -1 46 8
3 7 6 -3 10 -7 3 -19 3 -26 1z"/>
<path d="M1367 983 c-11 -10 11 -58 26 -59 13 -2 14 -1 2 3 -20 6 -19 30 1 41
14 8 14 10 -4 14 -12 3 -23 4 -25 1z"/>
<path d="M1738 984 c-3 -2 -3 -17 0 -34 3 -20 10 -30 21 -29 10 0 11 2 4 6 -7
2 -13 14 -13 24 0 11 5 17 10 14 6 -3 10 -2 10 3 0 11 -25 23 -32 16z"/>
<path d="M2310 970 c0 -19 7 -20 160 -20 153 0 160 1 160 20 0 19 -7 20 -160
20 -153 0 -160 -1 -160 -20z"/>
<path d="M947 959 c4 -12 0 -25 -8 -30 -10 -6 -5 -9 16 -8 17 0 24 3 18 6 -7
2 -13 16 -13 29 0 13 -4 24 -9 24 -5 0 -7 -9 -4 -21z"/>
<path d="M1060 971 c0 -6 5 -10 12 -8 6 1 14 -6 16 -15 2 -10 -2 -18 -8 -18
-6 0 -8 5 -4 11 4 7 2 10 -5 8 -22 -8 -17 -24 7 -27 20 -3 23 0 20 25 -3 26
-38 48 -38 24z"/>
<path d="M1244 965 c-9 -23 3 -45 23 -44 17 1 17 2 1 6 -19 5 -25 43 -7 43 6
0 9 -7 5 -15 -5 -15 5 -20 17 -8 8 7 -11 33 -25 33 -5 0 -11 -7 -14 -15z"/>
<path d="M1304 969 c-4 -7 1 -16 12 -22 17 -10 17 -11 -1 -18 -19 -7 -18 -8 3
-8 13 -1 22 5 22 14 0 8 -4 15 -10 15 -5 0 -10 5 -10 11 0 5 5 7 10 4 6 -3 10
-1 10 4 0 15 -27 14 -36 0z"/>
<path d="M1424 968 c-5 -8 -2 -9 9 -5 12 5 17 1 17 -13 0 -11 -5 -20 -11 -20
-5 0 -7 5 -4 10 3 6 1 10 -4 10 -6 0 -11 -7 -11 -15 0 -9 9 -15 25 -15 25 0
31 13 19 44 -7 19 -30 21 -40 4z"/>
<path d="M1484 950 c1 -18 7 -26 24 -28 19 -3 22 1 21 30 -1 29 -2 30 -8 9 -9
-33 -29 -38 -34 -9 -4 21 -4 21 -3 -2z"/>
<path d="M1551 945 c1 -23 3 -25 6 -7 2 12 11 22 19 22 8 0 14 4 14 9 0 6 -9
9 -20 8 -16 -1 -20 -8 -19 -32z"/>
<path d="M1610 970 c0 -6 5 -8 10 -5 6 3 10 -3 10 -14 0 -12 -5 -21 -11 -21
-5 0 -7 5 -4 10 3 6 1 10 -4 10 -6 0 -11 -7 -11 -15 0 -9 10 -15 26 -15 22 0
25 4 22 27 -3 27 -38 48 -38 23z"/>
<path d="M1660 949 c0 -16 5 -29 10 -29 6 0 10 11 10 25 0 33 17 32 23 0 4
-23 4 -23 3 2 -1 22 -6 28 -23 29 -19 1 -23 -4 -23 -27z"/>
<path d="M1917 973 c-4 -3 -7 -17 -7 -30 0 -18 5 -23 23 -22 16 1 18 2 5 6
-19 5 -25 43 -7 43 6 0 9 -7 5 -15 -3 -8 -2 -15 3 -15 16 0 21 13 10 27 -13
14 -22 16 -32 6z"/>
<path d="M1970 971 c0 -6 7 -8 15 -5 10 4 15 0 15 -15 0 -12 -5 -21 -11 -21
-5 0 -7 5 -4 10 3 6 1 10 -4 10 -6 0 -11 -7 -11 -15 0 -8 9 -15 21 -15 16 0
20 5 17 27 -3 26 -38 48 -38 24z"/>
<path d="M2030 948 c0 -15 5 -28 10 -28 6 0 10 7 10 16 0 9 8 23 18 30 15 12
14 13 -10 12 -23 -2 -28 -7 -28 -30z"/>
<path d="M2100 965 c-17 -21 -5 -45 22 -44 l23 0 -23 10 c-23 9 -26 36 -3 32
6 -2 11 2 11 7 0 15 -16 12 -30 -5z"/>
<path d="M1410 590 c0 -36 4 -52 15 -56 11 -5 15 -22 15 -70 0 -36 4 -64 10
-64 6 0 10 27 10 61 0 42 5 65 14 73 16 12 25 90 11 93 -5 2 -8 -13 -7 -31 2
-19 -1 -37 -7 -41 -7 -4 -11 10 -11 39 0 27 -5 46 -11 46 -7 0 -10 -17 -7 -45
2 -25 0 -45 -4 -45 -5 0 -8 20 -8 45 0 25 -4 45 -10 45 -5 0 -10 -23 -10 -50z"/>
<path d="M1540 520 c0 -73 4 -120 10 -120 6 0 10 18 10 40 0 29 5 42 20 50 16
8 20 21 20 58 0 50 -12 75 -42 85 -17 6 -18 -4 -18 -113z m40 35 c0 -24 -4
-47 -10 -50 -6 -4 -10 15 -10 50 0 35 4 54 10 50 6 -3 10 -26 10 -50z"/>
</g>
</svg>
