<?xml version="1.0" standalone="no"?>
<!DOCTYPE svg PUBLIC "-//W3C//DTD SVG 20010904//EN"
 "http://www.w3.org/TR/2001/REC-SVG-20010904/DTD/svg10.dtd">
<svg version="1.0" xmlns="http://www.w3.org/2000/svg"
 width="300.000000pt" height="111.000000pt" viewBox="0 0 300.000000 111.000000"
 preserveAspectRatio="xMidYMid meet">
<metadata>
Created by potrace 1.10, written by Peter Selinger 2001-2011
</metadata>
<g transform="translate(0.000000,111.000000) scale(0.100000,-0.100000)"
fill="#6331e2" stroke="none">
<path d="M184 732 c-18 -12 -23 -39 -10 -57 25 -35 83 6 60 43 -13 19 -34 26
-50 14z m29 -19 c-7 -2 -13 -9 -13 -14 0 -6 6 -7 13 -3 10 6 10 4 0 -7 -10 -9
-16 -10 -24 -2 -14 14 -3 33 19 32 11 0 12 -3 5 -6z"/>
<path d="M2672 728 c-19 -19 -14 -56 8 -63 24 -8 50 10 50 34 0 19 -19 41 -35
41 -6 0 -16 -5 -23 -12z m31 -15 c-7 -2 -13 -9 -13 -14 0 -6 5 -7 10 -4 6 3
10 1 10 -4 0 -14 -27 -14 -35 -1 -9 14 3 30 23 29 11 0 12 -3 5 -6z"/>
<path d="M741 705 c-20 -52 -21 -55 -11 -55 6 0 10 5 10 10 0 14 27 12 33 -2
4 -9 6 -8 6 2 0 8 -6 29 -13 45 l-14 30 -11 -30z m16 -17 c-3 -8 -6 -5 -6 6
-1 11 2 17 5 13 3 -3 4 -12 1 -19z"/>
<path d="M928 723 c6 -2 12 -17 12 -33 0 -16 -6 -31 -12 -33 -7 -3 1 -5 17 -5
17 0 24 2 18 5 -7 2 -13 20 -13 39 0 26 -4 34 -17 33 -11 0 -13 -3 -5 -6z"/>
<path d="M1111 688 c1 -24 3 -35 6 -25 5 18 5 18 25 0 21 -18 21 -18 9 4 -8
15 -8 24 -1 28 14 9 -7 35 -26 35 -10 0 -14 -13 -13 -42z m29 17 c0 -8 -4 -15
-10 -15 -5 0 -10 7 -10 15 0 8 5 15 10 15 6 0 10 -7 10 -15z"/>
<path d="M1804 718 c-4 -6 2 -19 14 -29 28 -22 27 -27 0 -32 -20 -4 -19 -4 5
-6 20 -1 27 4 27 18 0 10 -7 21 -15 25 -8 3 -15 10 -15 17 0 6 7 9 15 5 8 -3
15 -1 15 4 0 14 -37 12 -46 -2z"/>
<path d="M2122 690 c1 -29 2 -35 5 -17 5 34 23 36 23 2 0 -14 5 -25 10 -25 18
0 11 50 -7 57 -10 4 -21 11 -25 17 -4 6 -7 -9 -6 -34z"/>
<path d="M280 700 c0 -19 7 -20 165 -20 158 0 165 1 165 20 0 19 -7 20 -165
20 -158 0 -165 -1 -165 -20z m158 -7 c-27 -2 -69 -2 -95 0 -27 2 -5 3 47 3 52
0 74 -1 48 -3z m79 1 c-3 -3 -12 -4 -19 -1 -8 3 -5 6 6 6 11 1 17 -2 13 -5z
m40 0 c-3 -3 -12 -4 -19 -1 -8 3 -5 6 6 6 11 1 17 -2 13 -5z"/>
<path d="M799 709 c-10 -6 -10 -9 -2 -9 7 0 12 -10 10 -22 -1 -16 4 -23 18
-25 11 -1 14 0 8 3 -16 7 -17 41 -1 46 8 3 7 6 -3 10 -9 3 -22 2 -30 -3z"/>
<path d="M1082 700 c0 -14 2 -19 5 -12 2 6 2 18 0 25 -3 6 -5 1 -5 -13z"/>
<path d="M1307 714 c-2 -2 -2 -17 1 -34 3 -20 10 -30 21 -29 10 0 11 2 4 6
-19 7 -16 41 5 45 14 3 13 5 -5 10 -12 3 -24 4 -26 2z"/>
<path d="M1688 714 c-3 -2 -3 -17 0 -34 3 -20 10 -30 21 -29 10 0 11 2 4 6
-16 6 -17 40 -1 45 8 3 6 6 -4 10 -9 4 -18 5 -20 2z"/>
<path d="M2284 700 c0 -19 7 -20 168 -20 161 0 168 1 168 20 0 19 -7 20 -168
20 -161 0 -168 -1 -168 -20z m234 -7 c-32 -2 -86 -2 -120 0 -35 2 -9 3 57 3
66 0 94 -1 63 -3z"/>
<path d="M865 680 c0 -26 4 -30 25 -29 14 0 19 3 13 6 -7 2 -13 16 -13 29 0
13 -6 24 -12 24 -8 0 -13 -13 -13 -30z"/>
<path d="M1000 701 l25 -7 -24 -6 c-28 -8 -23 -32 8 -36 19 -3 22 0 19 25 -2
22 -9 28 -28 30 l-25 2 25 -8z m15 -31 c-3 -5 -11 -10 -16 -10 -6 0 -7 5 -4
10 3 6 11 10 16 10 6 0 7 -4 4 -10z"/>
<path d="M1174 696 c-10 -25 3 -46 28 -45 23 0 23 0 -2 11 l-25 11 23 5 c13 2
21 9 19 15 -6 19 -36 20 -43 3z"/>
<path d="M1240 696 c0 -8 8 -17 18 -21 15 -7 14 -9 -8 -15 -23 -7 -23 -8 -3
-9 29 -1 40 19 17 32 -17 10 -17 11 1 18 19 7 18 8 -2 8 -13 1 -23 -5 -23 -13z"/>
<path d="M1370 702 c18 -8 26 -42 10 -42 -6 0 -8 5 -5 10 3 6 1 10 -4 10 -6 0
-11 -7 -11 -15 0 -9 10 -15 26 -15 22 0 25 4 22 28 -2 21 -9 28 -28 29 -16 2
-20 0 -10 -5z"/>
<path d="M1422 683 c2 -20 9 -29 26 -31 19 -3 22 1 21 30 -2 30 -2 31 -6 6 -5
-35 -23 -37 -23 -3 0 14 -5 25 -11 25 -6 0 -9 -12 -7 -27z"/>
<path d="M1491 675 c1 -20 3 -24 6 -10 3 11 12 25 20 32 13 10 12 12 -6 10
-17 -1 -21 -7 -20 -32z"/>
<path d="M1564 702 c18 -8 18 -9 3 -15 -27 -10 -21 -37 9 -37 22 0 25 4 22 28
-2 21 -9 28 -28 29 -21 2 -22 1 -6 -5z m16 -32 c0 -5 -5 -10 -11 -10 -5 0 -7
5 -4 10 3 6 8 10 11 10 2 0 4 -4 4 -10z"/>
<path d="M1610 680 c0 -16 5 -30 10 -30 6 0 10 11 10 25 0 34 18 32 23 -2 4
-26 4 -26 6 5 1 28 -2 32 -24 32 -21 0 -25 -5 -25 -30z"/>
<path d="M1866 695 c-9 -24 4 -45 28 -44 16 1 17 2 4 6 -24 6 -23 23 2 23 13
0 18 5 14 15 -4 8 -14 15 -24 15 -10 0 -20 -7 -24 -15z"/>
<path d="M1944 702 c18 -8 18 -9 3 -15 -27 -10 -21 -37 9 -37 22 0 25 4 22 28
-2 21 -9 28 -28 29 -21 2 -22 1 -6 -5z m16 -32 c0 -5 -5 -10 -11 -10 -5 0 -7
5 -4 10 3 6 8 10 11 10 2 0 4 -4 4 -10z"/>
<path d="M2001 678 c2 -30 2 -30 6 -6 2 15 12 29 21 31 12 3 10 5 -5 6 -20 1
-23 -4 -22 -31z"/>
<path d="M2064 695 c-9 -23 3 -45 23 -44 17 1 17 2 1 6 -10 2 -18 13 -18 23 0
10 8 21 18 23 16 4 16 5 -1 6 -10 0 -20 -6 -23 -14z"/>
<path d="M2191 674 c0 -11 3 -14 6 -6 3 7 2 16 -1 19 -3 4 -6 -2 -5 -13z"/>
<path d="M2231 674 c0 -11 3 -14 6 -6 3 7 2 16 -1 19 -3 4 -6 -2 -5 -13z"/>
<path d="M1321 334 c0 -11 3 -14 6 -6 3 7 2 16 -1 19 -3 4 -6 -2 -5 -13z"/>
<path d="M1350 306 c0 -26 6 -48 15 -56 10 -9 15 -32 15 -76 0 -36 4 -64 10
-64 6 0 10 28 10 65 0 54 3 66 20 75 15 8 20 21 20 55 0 25 -4 45 -10 45 -5 0
-10 -18 -10 -39 0 -22 -4 -43 -10 -46 -6 -4 -10 12 -10 39 0 27 -5 46 -11 46
-7 0 -10 -17 -7 -45 2 -25 0 -45 -4 -45 -5 0 -8 20 -8 45 0 25 -4 45 -10 45
-5 0 -10 -20 -10 -44z"/>
<path d="M1480 230 c0 -73 4 -120 10 -120 6 0 10 18 10 40 0 33 4 42 25 52 21
10 25 18 25 57 0 52 -22 91 -51 91 -18 0 -19 -8 -19 -120z m48 31 c-2 -19 -9
-36 -15 -39 -10 -3 -13 12 -13 55 1 54 2 57 16 38 8 -11 14 -35 12 -54z"/>
<path d="M1281 324 c0 -11 3 -14 6 -6 3 7 2 16 -1 19 -3 4 -6 -2 -5 -13z"/>
<path d="M1321 294 c0 -11 3 -14 6 -6 3 7 2 16 -1 19 -3 4 -6 -2 -5 -13z"/>
<path d="M1451 234 c0 -11 3 -14 6 -6 3 7 2 16 -1 19 -3 4 -6 -2 -5 -13z"/>
</g>
</svg>
